<svg height="512" viewBox="0 0 64 64" width="512" xmlns="http://www.w3.org/2000/svg"><g id="Twotone"><g id="Color_copy" data-name="Color copy"><path d="m43 3h-30a4 4 0 0 0 -4 4v18a4 4 0 0 0 4 4h5l10 8v-8h15a4 4 0 0 0 4-4v-18a4 4 0 0 0 -4-4zm-24 14a5 5 0 1 1 5-5 5 5 0 0 1 -5 5z" fill="#79bd9a"/><g fill="#cff09e"><path d="m59.74 36.6a2.649 2.649 0 0 1 -.63 1l-9.27 9.27a13 13 0 0 1 -7.51 3.7l-14.55 1.9a6.968 6.968 0 0 0 -3.52 1.53h-.26a13.969 13.969 0 0 1 -11.69-6.31 34.584 34.584 0 0 0 -9.31 13.31h19.71l.48-1.19a7.005 7.005 0 0 1 5.59-4.34l14.55-1.9a13 13 0 0 0 7.51-3.7l9.27-9.27a2.6 2.6 0 0 0 -.09-3.78 3.013 3.013 0 0 0 -.28-.22z"/><path d="m46.71 45 9.8-8.17a2.775 2.775 0 0 1 2.61-.52l1.3-1.66a2.736 2.736 0 0 0 .03-3.33 2.411 2.411 0 0 0 -.44-.46l-10.69 9.32a10.009 10.009 0 0 1 -6.66 2.47l9.32-7.93a2.578 2.578 0 0 0 -.53-1.4 2.383 2.383 0 0 0 -.47-.48l-7.13 6.48a3.985 3.985 0 0 1 -4.17.75l-.44-.17 5.66-4.81a2.415 2.415 0 0 0 -.45-.96l-.02-.04a2.735 2.735 0 0 0 -3.92-.47l-7.75 6.38h3.31a2.752 2.752 0 0 1 .9.166 2.416 2.416 0 0 1 .03.334 2.492 2.492 0 0 1 -2.5 2.5h-4.79v.029a2 2 0 0 0 -1.71 1.971z"/><path d="m23.7 13.7a5 5 0 1 1 -6.4-6.4 4.788 4.788 0 0 0 -.3 1.7 5 5 0 0 0 5 5 4.788 4.788 0 0 0 1.7-.3z"/></g><g fill="#a8dba8"><rect height="4" rx="2" width="10" x="14" y="16"/><path d="m16 20h6a0 0 0 0 1 0 0v1a3 3 0 0 1 -3 3 3 3 0 0 1 -3-3v-1a0 0 0 0 1 0 0z"/></g></g><g id="Stroke_Close_copy" fill="#3b8686" data-name="Stroke Close copy"><path d="m60.61 36.021.592-.754a3.73 3.73 0 0 0 -5.349-5.148l-3.41 2.9c-.06-.1-.119-.2-.189-.294a3.731 3.731 0 0 0 -5.4-.6l-1.624 1.375a3.73 3.73 0 0 0 -5.357-.642l-7.473 6.142h-3.052a17.74 17.74 0 0 0 -8.617 1.976l-2.093 1.108a35.812 35.812 0 0 0 -16.569 18.551 1 1 0 0 0 1.862.73 33.81 33.81 0 0 1 15.642-17.513l2.094-1.109a15.825 15.825 0 0 1 7.681-1.743h6.721a1.6 1.6 0 0 1 1.631 1.342 1.5 1.5 0 0 1 -1.488 1.658h-8.5a1 1 0 0 0 0 2h19a1 1 0 0 0 .641-.232l9.8-8.165a1.7 1.7 0 0 1 2.2-.042 1.608 1.608 0 0 1 .531 1.159 1.587 1.587 0 0 1 -.47 1.17l-9.276 9.277a12.058 12.058 0 0 1 -6.938 3.413l-14.546 1.9a8.007 8.007 0 0 0 -6.393 4.961l-.476 1.19a1 1 0 0 0 1.858.742l.475-1.189a6 6 0 0 1 4.794-3.721l14.546-1.9a14.066 14.066 0 0 0 8.089-3.982l9.276-9.276a3.6 3.6 0 0 0 -.124-5.218c-.029-.025-.061-.042-.089-.066zm-12.463-2.379a1.732 1.732 0 0 1 2.506.28 1.638 1.638 0 0 1 .228.422l-11.359 9.656h-.149a3.516 3.516 0 0 0 .321-1.858 3.249 3.249 0 0 0 -.3-1.055zm-12.078 5.358h-.52l5.593-4.6a1.721 1.721 0 0 1 1.3-.383 1.746 1.746 0 0 1 1.206.716c.017.022.021.055.037.078l-5.625 4.781a3.726 3.726 0 0 0 -1.991-.592zm19.8-2.934-9.519 7.934h-3.741l14.538-12.358a1.732 1.732 0 0 1 2.483 2.389l-.93 1.179a3.792 3.792 0 0 0 -2.83.856z"/><path d="m13 30h4.649l9.726 7.781a1 1 0 0 0 1.625-.781v-7h14a5.006 5.006 0 0 0 5-5v-18a5.006 5.006 0 0 0 -5-5h-30a5.006 5.006 0 0 0 -5 5v18a5.006 5.006 0 0 0 5 5zm-3-23a3 3 0 0 1 3-3h30a3 3 0 0 1 3 3v18a3 3 0 0 1 -3 3h-15a1 1 0 0 0 -1 1v5.919l-8.375-6.7a1 1 0 0 0 -.625-.219h-5a3 3 0 0 1 -3-3z"/><path d="m13 18a3 3 0 0 0 2 2.816v.184a4 4 0 0 0 8 0v-.184a2.979 2.979 0 0 0 .778-5.219 5.894 5.894 0 0 0 1.222-3.597 6 6 0 0 0 -12 0 5.894 5.894 0 0 0 1.222 3.6 2.99 2.99 0 0 0 -1.222 2.4zm6 5a2 2 0 0 1 -2-2h4a2 2 0 0 1 -2 2zm3-4h-6a1 1 0 0 1 0-2h6a1 1 0 0 1 0 2zm-3-11a4 4 0 0 1 4 4 3.936 3.936 0 0 1 -1.414 3h-1.586v-1.586l.707-.707a1 1 0 0 0 -1.414-1.414l-.293.293-.293-.293a1 1 0 0 0 -1.414 1.414l.707.707v1.586h-1.586a3.936 3.936 0 0 1 -1.414-3 4 4 0 0 1 4-4z"/><path d="m31 11h11a1 1 0 0 0 0-2h-11a1 1 0 0 0 0 2z"/><path d="m28 15h14a1 1 0 0 0 0-2h-14a1 1 0 0 0 0 2z"/><path d="m28 19h12a1 1 0 0 0 0-2h-12a1 1 0 0 0 0 2z"/><path d="m28 23h8a1 1 0 0 0 0-2h-8a1 1 0 0 0 0 2z"/></g></g></svg>